<svg width="62" height="151" viewBox="0 0 62 151" fill="none" xmlns="http://www.w3.org/2000/svg">
<path d="M36.6061 55.45C35.8138 59.3951 32.6663 61.4604 28.6835 60.9132C24.3783 60.3226 20.8009 58.3068 17.5397 55.5736C17.2972 55.3696 17.0484 55.1563 16.8734 54.8996C15.9982 53.6165 14.8559 52.7385 13.4219 52.1108C11.5487 51.2915 11.4658 49.4055 11.2478 47.702C11.0297 45.986 10.956 44.2546 10.781 42.5325C10.7442 42.1862 10.5354 41.8585 10.4033 41.5215C10.302 41.5338 10.2037 41.5462 10.1024 41.5617C10.0809 41.8801 10.041 42.1986 10.041 42.5201C10.0348 47.0094 10.0348 51.5018 10.0287 55.991C10.0287 56.4857 9.99797 56.9804 9.9642 57.4751C9.83829 59.1694 9.04604 60.1804 7.56901 60.5545C6.15646 60.9132 4.78076 60.3597 3.9363 59.0272C2.91988 57.4256 2.56982 55.6108 2.60667 53.765C2.66501 50.8339 2.86461 47.906 3.02429 44.9781C3.27302 40.427 3.58931 35.8758 3.77969 31.3216C4.04685 24.8598 4.20346 18.3918 4.45833 11.9268C4.5136 10.4984 4.07756 9.57708 2.68036 9.08548C1.71922 8.74539 0.939245 8.12703 1.00373 6.91814C1.07129 5.67524 1.85433 5.03833 2.91988 4.66731C5.1339 3.89127 7.66727 4.67041 8.96313 6.66152C9.4913 7.47466 10.041 7.51176 10.692 7.08819C11.5733 6.51621 12.3532 5.78963 13.2284 5.20838C14.6317 4.27466 16.0443 3.35021 17.509 2.51852C21.5041 0.249145 25.5084 0.746924 29.5249 2.54325C33.9038 4.50345 35.6296 8.22597 36.3236 12.6627C36.517 13.9087 36.6828 15.1578 36.8763 16.4996C38.9214 16.0204 40.7025 15.1052 42.1948 13.7634C44.5225 11.6702 46.7426 9.45341 48.972 7.25205C49.8195 6.41418 50.2279 5.41553 50.2157 4.12625C50.1911 1.44258 51.7234 0.836586 54.1002 1.71775C54.484 1.85997 54.8771 2.10731 55.1442 2.4134C57.4289 5.02905 58.7032 8.06519 58 11.5373C57.7237 12.9008 56.6642 14.1189 55.8812 15.3525C55.5096 15.9369 54.9538 16.3976 54.4963 16.8953C55.2333 17.5384 55.9457 18.1011 56.5905 18.7381C60.7453 22.847 60.2233 27.8898 57.2753 31.974C56.0071 33.7332 56.047 33.9033 57.5701 35.4925C60.082 38.1143 61.2796 41.3081 60.9449 44.941C60.8497 45.9675 60.2785 47.0434 59.6644 47.906C56.9099 51.7738 53.7317 55.2645 49.9792 58.1831C48.4346 59.3827 46.7027 60.2886 44.7037 60.369C41.4087 60.4989 39.0289 58.8602 37.2202 56.226C37.082 56.0251 36.9807 55.7963 36.8517 55.5891C36.818 55.5396 36.735 55.5211 36.6061 55.45ZM37.0575 49.3653C37.4444 49.3282 37.862 49.3313 38.2551 49.2417C42.201 48.342 45.4621 46.1653 48.4745 43.5806C49.6476 42.5758 50.7162 41.4349 51.7418 40.2755C52.6385 39.2614 52.6999 38.3678 52.1042 37.7186C51.4317 36.9827 50.4951 37.026 49.3681 37.8608C48.9996 38.1329 48.6649 38.4513 48.2934 38.7141C47.2892 39.4221 46.3189 40.2074 45.2472 40.7918C42.6401 42.2109 39.9808 43.4662 37.0575 40.9526C37.0575 43.865 37.0575 46.5673 37.0575 49.3653ZM10.1055 39.0264C11.303 39.3232 12.3502 39.586 13.2806 39.8179C14.3093 38.7481 15.2827 37.5856 16.4097 36.5962C18.2153 35.0101 20.3771 34.9174 22.4345 35.8635C24.753 36.9302 26.3682 38.7079 26.3958 41.4936C26.4142 43.559 26.0979 45.5624 25.2289 47.4639C25.0846 47.7792 25.0477 48.1812 25.0815 48.5305C25.1552 49.2757 25.5544 50.0888 25.361 50.735C25.1675 51.3812 24.4121 51.8604 23.9392 52.3736C26.4603 53.2641 27.2372 52.7756 27.2495 50.0579C27.274 44.6875 27.2648 39.317 27.228 33.9466C27.2249 33.6312 26.9056 33.0685 26.6875 33.0469C25.2443 32.8892 23.758 32.6387 22.3424 32.8273C20.9114 33.019 19.5142 33.6127 18.1508 34.1599C15.5714 35.1957 12.9705 36.1046 10.1055 36.2747C10.1055 37.2641 10.1055 38.2411 10.1055 39.0264ZM49.6199 21.6382C47.3813 22.8285 45.2748 24.0096 43.113 25.0762C41.6268 25.809 40.0484 25.7348 38.5069 25.169C38.0708 25.0082 37.6716 24.7485 37.2908 24.5506C37.2908 27.5775 37.2908 30.5301 37.2908 33.8755C38.903 33.0963 40.3985 32.6233 41.6022 31.7421C44.2338 29.8128 46.7672 27.7352 49.2422 25.6049C51.0263 24.0714 50.9926 23.6509 49.6875 21.7C49.6506 21.6443 49.5862 21.6041 49.6199 21.6382ZM21.3475 26.4026C23.4172 26.7613 25.3517 27.0983 27.4399 27.46C27.4399 25.4287 27.4675 23.4221 27.403 21.4186C27.3969 21.1806 26.9178 20.8003 26.62 20.7601C24.8942 20.5127 23.279 20.9611 21.7743 21.7835C21.4857 21.9411 21.2062 22.4111 21.2032 22.7419C21.1909 23.9694 21.2922 25.203 21.3475 26.4026ZM27.4829 14.3323C27.1481 12.6503 26.8994 10.9591 26.4511 9.32355C26.1716 8.30017 25.4807 8.00645 24.5748 8.51969C22.9719 9.42867 21.4611 10.5046 19.9534 11.4847C20.3372 12.4061 20.6136 13.1636 20.9729 13.8778C21.0803 14.0911 21.4181 14.3137 21.6546 14.3168C23.497 14.3508 25.3364 14.3323 27.4829 14.3323ZM15.7341 49.6621C17.0177 48.5955 18.5285 48.345 19.0199 46.8672C19.5419 45.3027 20.0086 43.7197 20.4907 42.1429C20.6443 41.639 20.85 41.1319 20.8807 40.6187C20.8961 40.362 20.6289 39.9756 20.3894 39.855C20.2359 39.7777 19.8182 40.0127 19.6524 40.2167C19.4405 40.4764 19.373 40.8567 19.2195 41.169C18.3873 42.8633 17.5213 44.5143 15.4547 45.0028C15.252 45.0492 14.9665 45.4511 14.9941 45.6459C15.1814 46.8919 15.4394 48.1193 15.7341 49.6621ZM14.3554 14.9537C13.2499 15.1176 12.2857 15.2381 11.3307 15.4175C11.1495 15.4515 10.8854 15.705 10.8731 15.872C10.7503 17.3808 10.6766 18.8926 10.5783 20.5468C11.8404 19.5883 12.9305 18.7752 14.0022 17.9342C14.1711 17.8012 14.3308 17.5508 14.34 17.3437C14.3799 16.5831 14.3554 15.8194 14.3554 14.9537ZM14.1711 25.8306C12.9275 26.1336 11.8128 26.3933 10.7104 26.6901C10.5569 26.7303 10.3511 26.956 10.3388 27.1075C10.2436 28.3752 10.1884 29.6428 10.1177 31.0032C11.3798 30.3292 12.4576 29.7665 13.5201 29.1728C13.7044 29.0708 13.9193 28.8451 13.9408 28.6565C14.0514 27.7506 14.0974 26.8416 14.1711 25.8306Z" stroke="white" stroke-width="2" stroke-miterlimit="10"/>
<g clip-path="url(#clip0_41_48)">
<path d="M30.1136 129.785C28.8373 132.802 27.7499 135.793 26.3279 138.618C24.9369 141.382 23.4282 144.138 21.5756 146.612C18.3753 150.887 13.6199 151.854 8.7127 148.91C7.51068 148.19 6.3954 147.302 5.34208 146.377C4.09049 145.279 4.20822 144.656 5.58992 143.647C6.699 142.838 7.82977 142.042 8.85521 141.135C13.0313 137.44 15.5902 132.766 17.2229 127.545C17.511 126.627 17.8053 125.711 18.0779 124.848C15.7823 125.787 13.5487 126.743 11.2778 127.597C10.7667 127.789 10.0696 127.789 9.54296 127.618C6.02984 126.48 4.14626 123.877 3.4554 120.46C2.63444 116.399 2.95043 112.35 4.16794 108.377C4.87119 106.085 6.32105 104.322 8.16745 102.842C9.36948 101.878 10.7202 101.393 12.1856 102.201C13.7129 103.043 14.5245 104.462 14.2736 106.125C13.8058 109.213 13.0933 112.261 12.4954 115.331C12.3436 116.109 12.2103 116.896 12.1205 117.683C12.0523 118.281 12.4427 118.596 12.9693 118.388C13.8709 118.034 14.8405 117.692 15.5593 117.088C17.3933 115.551 19.1065 113.878 20.8568 112.246C21.0272 112.087 21.1914 111.871 21.2503 111.654C22.0124 108.835 22.7838 106.015 23.4808 103.178C23.6512 102.482 23.6822 101.707 23.5738 100.999C23.4932 100.471 23.2144 99.8213 22.8024 99.5161C19.8903 97.3558 20.262 93.4899 23.6079 92.007C25.3118 91.2533 27.1334 91.0062 28.8714 91.7598C30.4389 92.4403 31.9941 93.2397 33.3665 94.2375C35.0209 95.4366 35.7148 97.249 35.7613 99.269C35.7861 100.313 35.7644 101.353 35.7644 102.534C36.3375 102.308 36.8208 102.128 37.2948 101.933C41.1673 100.346 45.1637 99.6901 49.3429 100.346C51.4991 100.685 53.2959 101.722 54.7148 103.284C57.7663 106.65 59.5973 110.54 59.3494 115.154C59.2224 117.519 58.5254 119.767 57.0786 121.687C54.9348 124.53 51.9824 125.131 48.5653 124.585C42.4715 123.612 38.0972 120.097 34.3548 115.575C34.2433 115.441 34.1348 115.309 33.9056 115.029C33.3634 117.284 32.8523 119.404 32.3256 121.586C37.3815 123.212 41.9821 125.653 46.4122 128.412C49.9346 130.602 53.2557 133.059 55.8022 136.348C57.7292 138.835 59.3525 141.529 59.3556 144.785C59.3587 147.128 58.3705 149.096 56.1151 150.134C53.9527 151.128 51.8151 150.777 50.0833 149.218C48.683 147.958 47.3726 146.536 46.2976 145.001C42.1494 139.088 36.9912 134.233 30.916 130.285C30.6651 130.114 30.3925 129.956 30.1136 129.785ZM48.3949 110.659C48.2958 110.629 48.1966 110.601 48.0975 110.571C48.0975 110.223 48.1099 109.875 48.0944 109.527C47.9922 106.821 46.5051 105.64 43.8347 106.296C40.4393 107.132 37.5612 108.945 34.9248 111.151C34.3641 111.62 34.2433 112.737 34.7173 112.963C37.3444 114.217 39.9312 115.587 42.6574 116.582C44.4976 117.253 46.2046 116.414 47.1 114.65C47.7319 113.418 47.9798 111.996 48.3949 110.659Z" stroke="white" stroke-width="2" stroke-miterlimit="10"/>
</g>
<defs>
<clipPath id="clip0_41_48">
<rect width="57" height="60" fill="white" transform="translate(3 91)"/>
</clipPath>
</defs>
</svg>
