<svg width="30" height="30" viewBox="0 0 30 30" fill="none" xmlns="http://www.w3.org/2000/svg">
<circle cx="15" cy="15" r="15" fill="#FF0000"/>
<path d="M15.0191 20.8461C14.8408 21.2676 14.6889 21.6853 14.4903 22.08C14.296 22.4661 14.0852 22.851 13.8264 23.1966C13.3794 23.7938 12.7152 23.9289 12.0297 23.5176C11.8618 23.417 11.706 23.293 11.5589 23.1638C11.3841 23.0104 11.4005 22.9234 11.5935 22.7824C11.7484 22.6694 11.9064 22.5582 12.0496 22.4316C12.633 21.9155 12.9904 21.2625 13.2184 20.5333C13.2587 20.405 13.2998 20.2771 13.3379 20.1565C13.0172 20.2878 12.7052 20.4212 12.388 20.5405C12.3166 20.5674 12.2193 20.5674 12.1457 20.5435C11.655 20.3845 11.3919 20.021 11.2954 19.5436C11.1807 18.9763 11.2248 18.4107 11.3949 17.8558C11.4931 17.5357 11.6957 17.2894 11.9536 17.0827C12.1215 16.948 12.3101 16.8802 12.5148 16.9932C12.7282 17.1108 12.8415 17.309 12.8065 17.5413C12.7411 17.9726 12.6416 18.3984 12.5581 18.8272C12.5369 18.9358 12.5183 19.0458 12.5057 19.1558C12.4962 19.2393 12.5507 19.2832 12.6243 19.2542C12.7502 19.2048 12.8857 19.157 12.9861 19.0726C13.2423 18.8578 13.4816 18.6243 13.726 18.3963C13.7498 18.3741 13.7728 18.3438 13.781 18.3136C13.8875 17.9198 13.9952 17.5259 14.0926 17.1296C14.1164 17.0324 14.1207 16.9241 14.1056 16.8253C14.0943 16.7515 14.0554 16.6607 13.9978 16.6181C13.591 16.3164 13.643 15.7764 14.1103 15.5692C14.3483 15.4639 14.6028 15.4294 14.8455 15.5347C15.0645 15.6297 15.2817 15.7414 15.4734 15.8808C15.7045 16.0483 15.8014 16.3014 15.8079 16.5836C15.8114 16.7294 15.8084 16.8747 15.8084 17.0396C15.8884 17.0081 15.9559 16.983 16.0221 16.9557C16.5631 16.734 17.1213 16.6424 17.7051 16.734C18.0062 16.7814 18.2572 16.9263 18.4554 17.1445C18.8817 17.6146 19.1374 18.158 19.1028 18.8024C19.085 19.1327 18.9877 19.4469 18.7856 19.7149C18.4861 20.1122 18.0737 20.1961 17.5964 20.1198C16.7452 19.9839 16.1342 19.4929 15.6115 18.8612C15.5959 18.8425 15.5808 18.8242 15.5487 18.785C15.473 19.0999 15.4016 19.3961 15.328 19.7009C16.0343 19.928 16.6769 20.269 17.2957 20.6543C17.7877 20.9603 18.2516 21.3034 18.6073 21.7629C18.8765 22.1102 19.1032 22.4866 19.1037 22.9413C19.1041 23.2687 18.966 23.5436 18.651 23.6885C18.349 23.8274 18.0504 23.7784 17.8085 23.5606C17.6129 23.3846 17.4298 23.186 17.2797 22.9716C16.7002 22.1456 15.9797 21.4675 15.1311 20.916C15.0961 20.8921 15.058 20.87 15.0191 20.8461ZM17.5726 18.1746C17.5588 18.1704 17.5449 18.1665 17.5311 18.1623C17.5311 18.1137 17.5328 18.0651 17.5307 18.0165C17.5164 17.6385 17.3087 17.4735 16.9356 17.5652C16.4614 17.6819 16.0594 17.9351 15.6911 18.2432C15.6128 18.3089 15.5959 18.4649 15.6621 18.4964C16.0291 18.6716 16.3904 18.863 16.7712 19.0019C17.0283 19.0957 17.2667 18.9785 17.3918 18.7321C17.48 18.5599 17.5146 18.3613 17.5726 18.1746Z" fill="white"/>
<path d="M15.9259 13.7962C15.8153 14.3473 15.3756 14.6358 14.8193 14.5593C14.2179 14.4768 13.7182 14.1952 13.2627 13.8135C13.2288 13.785 13.1941 13.7552 13.1696 13.7193C13.0474 13.5401 12.8878 13.4175 12.6875 13.3298C12.4259 13.2153 12.4143 12.9519 12.3838 12.7139C12.3534 12.4743 12.3431 12.2324 12.3186 11.9919C12.3135 11.9435 12.2843 11.8977 12.2659 11.8506C12.2517 11.8524 12.238 11.8541 12.2238 11.8562C12.2208 11.9007 12.2153 11.9452 12.2153 11.9901C12.2144 12.6172 12.2144 13.2447 12.2135 13.8718C12.2135 13.9409 12.2093 14.01 12.2045 14.0791C12.1869 14.3157 12.0763 14.457 11.87 14.5092C11.6727 14.5593 11.4805 14.482 11.3625 14.2959C11.2206 14.0722 11.1717 13.8187 11.1768 13.5608C11.185 13.1514 11.2128 12.7424 11.2352 12.3335C11.2699 11.6978 11.3141 11.062 11.3407 10.4259C11.378 9.52329 11.3999 8.61982 11.4355 7.71678C11.4432 7.51726 11.3823 7.38856 11.1871 7.31989C11.0529 7.27239 10.9439 7.18601 10.9529 7.01715C10.9624 6.84354 11.0717 6.75457 11.2206 6.70275C11.5298 6.59435 11.8837 6.70318 12.0647 6.98131C12.1385 7.09489 12.2153 7.10007 12.3062 7.0409C12.4293 6.96101 12.5382 6.85952 12.6605 6.77833C12.8565 6.6479 13.0538 6.51877 13.2584 6.4026C13.8165 6.08561 14.3758 6.15514 14.9368 6.40606C15.5485 6.67986 15.7895 7.19983 15.8865 7.81956C15.9135 7.99361 15.9367 8.16808 15.9637 8.35551C16.2494 8.28857 16.4981 8.16074 16.7066 7.97331C17.0317 7.68093 17.3418 7.37128 17.6532 7.06379C17.7716 6.94676 17.8287 6.80726 17.827 6.62717C17.8235 6.25231 18.0376 6.16766 18.3696 6.29075C18.4232 6.31061 18.4781 6.34516 18.5154 6.38792C18.8345 6.75328 19.0125 7.17737 18.9143 7.66236C18.8757 7.85282 18.7277 8.02297 18.6183 8.19529C18.5664 8.27691 18.4888 8.34126 18.4249 8.41079C18.5278 8.50062 18.6273 8.57922 18.7174 8.66819C19.2978 9.24214 19.2248 9.94652 18.8131 10.517C18.6359 10.7628 18.6415 10.7865 18.8543 11.0085C19.2051 11.3747 19.3724 11.8208 19.3256 12.3283C19.3123 12.4717 19.2326 12.622 19.1468 12.7424C18.762 13.2827 18.3181 13.7703 17.7939 14.178C17.5782 14.3455 17.3363 14.4721 17.057 14.4833C16.5968 14.5014 16.2644 14.2726 16.0117 13.9046C15.9924 13.8765 15.9783 13.8446 15.9603 13.8156C15.9555 13.8087 15.944 13.8061 15.9259 13.7962ZM15.989 12.9463C16.043 12.9411 16.1014 12.9415 16.1563 12.929C16.7075 12.8033 17.163 12.4993 17.5838 12.1383C17.7476 11.9979 17.8969 11.8385 18.0401 11.6766C18.1654 11.5349 18.174 11.4101 18.0908 11.3194C17.9968 11.2166 17.866 11.2227 17.7086 11.3393C17.6571 11.3773 17.6104 11.4218 17.5585 11.4585C17.4182 11.5574 17.2826 11.6671 17.133 11.7487C16.7688 11.9469 16.3973 12.1223 15.989 11.7712C15.989 12.178 15.989 12.5554 15.989 12.9463ZM12.2243 11.5021C12.3915 11.5436 12.5378 11.5803 12.6678 11.6127C12.8115 11.4632 12.9474 11.3009 13.1049 11.1627C13.3571 10.9411 13.659 10.9282 13.9464 11.0603C14.2703 11.2093 14.4959 11.4576 14.4997 11.8467C14.5023 12.1352 14.4581 12.4151 14.3368 12.6807C14.3166 12.7247 14.3114 12.7809 14.3162 12.8297C14.3265 12.9338 14.3822 13.0473 14.3552 13.1376C14.3282 13.2279 14.2227 13.2948 14.1566 13.3665C14.5088 13.4909 14.6173 13.4226 14.619 13.043C14.6224 12.2929 14.6211 11.5427 14.616 10.7926C14.6156 10.7485 14.5709 10.6699 14.5405 10.6669C14.3389 10.6449 14.1313 10.6099 13.9336 10.6362C13.7337 10.663 13.5385 10.7459 13.3481 10.8224C12.9878 10.967 12.6245 11.094 12.2243 11.1177C12.2243 11.2559 12.2243 11.3924 12.2243 11.5021ZM17.7437 9.07328C17.4311 9.23955 17.1368 9.40452 16.8348 9.55352C16.6272 9.65587 16.4068 9.64551 16.1914 9.56647C16.1305 9.54402 16.0748 9.50774 16.0216 9.4801C16.0216 9.9029 16.0216 10.3153 16.0216 10.7826C16.2468 10.6738 16.4557 10.6077 16.6238 10.4846C16.9914 10.2151 17.3453 9.92493 17.691 9.62737C17.9402 9.41316 17.9355 9.35443 17.7532 9.08192C17.748 9.07414 17.739 9.06853 17.7437 9.07328ZM13.7946 9.73879C14.0837 9.78889 14.3539 9.83596 14.6456 9.88649C14.6456 9.60275 14.6494 9.32247 14.6404 9.04262C14.6396 9.00936 14.5727 8.95624 14.5311 8.95063C14.29 8.91608 14.0644 8.9787 13.8542 9.09358C13.8139 9.1156 13.7749 9.18125 13.7744 9.22746C13.7727 9.39891 13.7869 9.57123 13.7946 9.73879ZM14.6516 8.05277C14.6048 7.81784 14.5701 7.5816 14.5075 7.35315C14.4684 7.2102 14.3719 7.16917 14.2454 7.24086C14.0215 7.36783 13.8105 7.51812 13.5998 7.65502C13.6535 7.78372 13.6921 7.88953 13.7423 7.98929C13.7573 8.01909 13.8044 8.05018 13.8375 8.05061C14.0948 8.05536 14.3518 8.05277 14.6516 8.05277ZM13.0105 12.9877C13.1898 12.8387 13.4008 12.8038 13.4695 12.5973C13.5424 12.3788 13.6076 12.1577 13.6749 11.9374C13.6964 11.867 13.7251 11.7962 13.7294 11.7245C13.7315 11.6887 13.6942 11.6347 13.6608 11.6179C13.6393 11.6071 13.581 11.6399 13.5578 11.6684C13.5282 11.7047 13.5188 11.7578 13.4973 11.8014C13.3811 12.0381 13.2601 12.2687 12.9715 12.3369C12.9432 12.3434 12.9033 12.3995 12.9071 12.4267C12.9333 12.6008 12.9693 12.7722 13.0105 12.9877ZM12.8179 8.13958C12.6635 8.16247 12.5288 8.17931 12.3954 8.20436C12.3701 8.20911 12.3332 8.24452 12.3315 8.26784C12.3143 8.4786 12.304 8.68978 12.2903 8.92083C12.4666 8.78695 12.6189 8.67337 12.7686 8.5559C12.7922 8.53733 12.8145 8.50235 12.8158 8.47341C12.8213 8.36717 12.8179 8.2605 12.8179 8.13958ZM12.7922 9.6589C12.6185 9.70122 12.4628 9.7375 12.3088 9.77895C12.2873 9.78457 12.2586 9.8161 12.2569 9.83726C12.2436 10.0143 12.2358 10.1914 12.226 10.3814C12.4023 10.2873 12.5528 10.2087 12.7012 10.1257C12.727 10.1115 12.757 10.08 12.76 10.0536C12.7754 9.92709 12.7819 9.80012 12.7922 9.6589Z" fill="white"/>
</svg>
