<svg width="10" height="27" viewBox="0 0 10 27" fill="none" xmlns="http://www.w3.org/2000/svg">
<path d="M1.66034 2.845V3.412H5.54834V2.845H1.66034ZM2.29934 4.465V4.969H4.93634V4.465H2.29934ZM2.27234 5.833V6.337H4.95434V5.833H2.27234ZM2.75834 6.967V7.435H4.29734V8.677H2.75834V9.154H4.76534V6.967H2.75834ZM2.49734 6.967V9.712H2.97434V6.967H2.49734ZM3.35234 3.664V6.085H3.88334V3.664H3.35234ZM5.28734 2.845V9.874C5.28734 10.018 5.24234 10.072 5.08034 10.072C4.92734 10.081 4.38734 10.09 3.82934 10.063C3.92834 10.243 4.03634 10.549 4.07234 10.72C4.77434 10.72 5.26934 10.711 5.54834 10.594C5.81834 10.495 5.90834 10.279 5.90834 9.874V2.845H5.28734ZM1.36334 2.845V6.382C1.36334 7.606 1.31834 9.226 0.751337 10.369C0.886337 10.432 1.13834 10.63 1.24634 10.747C1.87634 9.541 1.96634 7.696 1.96634 6.373V2.845H1.36334ZM8.25734 2.638C7.76234 3.286 6.84434 3.97 6.08834 4.366C6.26834 4.492 6.46634 4.69 6.59234 4.834C7.38434 4.384 8.30234 3.655 8.89634 2.917L8.25734 2.638ZM8.39234 5.005C7.90634 5.716 6.99734 6.454 6.19634 6.868C6.37634 6.994 6.57434 7.201 6.69134 7.354C7.53734 6.859 8.44634 6.076 9.02234 5.257L8.39234 5.005ZM8.59934 7.435C8.07734 8.569 7.06934 9.595 5.91734 10.162C6.09734 10.315 6.30434 10.54 6.41234 10.702C7.62734 10.036 8.66234 8.938 9.25634 7.669L8.59934 7.435Z" fill="white"/>
<path d="M1.66034 2.845V2.545H1.36034V2.845H1.66034ZM1.66034 3.412H1.36034V3.712H1.66034V3.412ZM5.54834 3.412V3.712H5.84834V3.412H5.54834ZM5.54834 2.845H5.84834V2.545H5.54834V2.845ZM2.29934 4.465V4.165H1.99934V4.465H2.29934ZM2.29934 4.969H1.99934V5.269H2.29934V4.969ZM4.93634 4.969V5.269H5.23634V4.969H4.93634ZM4.93634 4.465H5.23634V4.165H4.93634V4.465ZM2.27234 5.833V5.533H1.97234V5.833H2.27234ZM2.27234 6.337H1.97234V6.637H2.27234V6.337ZM4.95434 6.337V6.637H5.25434V6.337H4.95434ZM4.95434 5.833H5.25434V5.533H4.95434V5.833ZM2.75834 6.967V6.667H2.45834V6.967H2.75834ZM2.75834 7.435H2.45834V7.735H2.75834V7.435ZM4.29734 7.435H4.59734V7.135H4.29734V7.435ZM4.29734 8.677V8.977H4.59734V8.677H4.29734ZM2.75834 8.677V8.377H2.45834V8.677H2.75834ZM2.75834 9.154H2.45834V9.454H2.75834V9.154ZM4.76534 9.154V9.454H5.06534V9.154H4.76534ZM4.76534 6.967H5.06534V6.667H4.76534V6.967ZM2.49734 6.967V6.667H2.19734V6.967H2.49734ZM2.49734 9.712H2.19734V10.012H2.49734V9.712ZM2.97434 9.712V10.012H3.27434V9.712H2.97434ZM2.97434 6.967H3.27434V6.667H2.97434V6.967ZM3.35234 3.664V3.364H3.05234V3.664H3.35234ZM3.35234 6.085H3.05234V6.385H3.35234V6.085ZM3.88334 6.085V6.385H4.18334V6.085H3.88334ZM3.88334 3.664H4.18334V3.364H3.88334V3.664ZM5.28734 2.845V2.545H4.98734V2.845H5.28734ZM5.08034 10.072V9.772H5.07152L5.06272 9.77252L5.08034 10.072ZM3.82934 10.063L3.84384 9.76335L3.30788 9.73742L3.56647 10.2076L3.82934 10.063ZM4.07234 10.72L3.77877 10.7818L3.82892 11.02H4.07234V10.72ZM5.54834 10.594L5.44495 10.312L5.43232 10.3173L5.54834 10.594ZM5.90834 2.845H6.20834V2.545H5.90834V2.845ZM1.36334 2.845V2.545H1.06334V2.845H1.36334ZM0.751337 10.369L0.482587 10.2357L0.346049 10.5109L0.624471 10.6409L0.751337 10.369ZM1.24634 10.747L1.0259 10.9505L1.31493 11.2636L1.51224 10.8859L1.24634 10.747ZM1.96634 2.845H2.26634V2.545H1.96634V2.845ZM8.25734 2.638L8.37738 2.36306L8.16176 2.26892L8.01894 2.45589L8.25734 2.638ZM6.08834 4.366L5.94913 4.10025L5.51238 4.32903L5.9163 4.61177L6.08834 4.366ZM6.59234 4.834L6.36656 5.03155L6.52774 5.21575L6.74054 5.09484L6.59234 4.834ZM8.89634 2.917L9.13004 3.1051L9.37626 2.79919L9.01638 2.64206L8.89634 2.917ZM8.39234 5.005L8.50375 4.72646L8.28041 4.63712L8.14467 4.83571L8.39234 5.005ZM6.19634 6.868L6.05859 6.60149L5.61788 6.82928L6.0243 7.11377L6.19634 6.868ZM6.69134 7.354L6.45303 7.53623L6.61405 7.7468L6.84284 7.61293L6.69134 7.354ZM9.02234 5.257L9.26773 5.42958L9.48593 5.11933L9.13375 4.97846L9.02234 5.257ZM8.59934 7.435L8.69999 7.15239L8.44154 7.06034L8.32682 7.30956L8.59934 7.435ZM5.91734 10.162L5.78486 9.89284L5.37486 10.0946L5.72304 10.3906L5.91734 10.162ZM6.41234 10.702L6.16272 10.8684L6.31531 11.0973L6.55654 10.9651L6.41234 10.702ZM9.25634 7.669L9.52804 7.79618L9.66801 7.49716L9.35699 7.38639L9.25634 7.669ZM1.36034 2.845V3.412H1.96034V2.845H1.36034ZM1.66034 3.712H5.54834V3.112H1.66034V3.712ZM5.84834 3.412V2.845H5.24834V3.412H5.84834ZM5.54834 2.545H1.66034V3.145H5.54834V2.545ZM1.99934 4.465V4.969H2.59934V4.465H1.99934ZM2.29934 5.269H4.93634V4.669H2.29934V5.269ZM5.23634 4.969V4.465H4.63634V4.969H5.23634ZM4.93634 4.165H2.29934V4.765H4.93634V4.165ZM1.97234 5.833V6.337H2.57234V5.833H1.97234ZM2.27234 6.637H4.95434V6.037H2.27234V6.637ZM5.25434 6.337V5.833H4.65434V6.337H5.25434ZM4.95434 5.533H2.27234V6.133H4.95434V5.533ZM2.45834 6.967V7.435H3.05834V6.967H2.45834ZM2.75834 7.735H4.29734V7.135H2.75834V7.735ZM3.99734 7.435V8.677H4.59734V7.435H3.99734ZM4.29734 8.377H2.75834V8.977H4.29734V8.377ZM2.45834 8.677V9.154H3.05834V8.677H2.45834ZM2.75834 9.454H4.76534V8.854H2.75834V9.454ZM5.06534 9.154V6.967H4.46534V9.154H5.06534ZM4.76534 6.667H2.75834V7.267H4.76534V6.667ZM2.19734 6.967V9.712H2.79734V6.967H2.19734ZM2.49734 10.012H2.97434V9.412H2.49734V10.012ZM3.27434 9.712V6.967H2.67434V9.712H3.27434ZM2.97434 6.667H2.49734V7.267H2.97434V6.667ZM3.05234 3.664V6.085H3.65234V3.664H3.05234ZM3.35234 6.385H3.88334V5.785H3.35234V6.385ZM4.18334 6.085V3.664H3.58334V6.085H4.18334ZM3.88334 3.364H3.35234V3.964H3.88334V3.364ZM4.98734 2.845V9.874H5.58734V2.845H4.98734ZM4.98734 9.874C4.98734 9.89703 4.98523 9.89842 4.9879 9.88839C4.99144 9.87514 5.00273 9.8446 5.03245 9.81487C5.06199 9.78534 5.09161 9.77472 5.1026 9.77174C5.1108 9.76952 5.10663 9.772 5.08034 9.772V10.372C5.17697 10.372 5.33588 10.36 5.45672 10.2391C5.57836 10.1175 5.58734 9.95943 5.58734 9.874H4.98734ZM5.06272 9.77252C4.92239 9.78077 4.39332 9.78994 3.84384 9.76335L3.81484 10.3626C4.38136 10.3901 4.93228 10.3812 5.09795 10.3715L5.06272 9.77252ZM3.56647 10.2076C3.65013 10.3597 3.74839 10.6375 3.77877 10.7818L4.3659 10.6582C4.32429 10.4605 4.20654 10.1263 4.0922 9.91842L3.56647 10.2076ZM4.07234 11.02C4.42209 11.02 4.7313 11.0179 4.98946 11.0002C5.24247 10.9828 5.47719 10.9491 5.66435 10.8707L5.43232 10.3173C5.34049 10.3559 5.1882 10.3852 4.94846 10.4016C4.71387 10.4176 4.42459 10.42 4.07234 10.42V11.02ZM5.65161 10.8757C5.85183 10.8022 6.00632 10.6735 6.09996 10.4787C6.18558 10.3007 6.20834 10.0912 6.20834 9.874H5.60834C5.60834 10.0618 5.5861 10.1628 5.55921 10.2188C5.54036 10.258 5.51484 10.2868 5.44506 10.3123L5.65161 10.8757ZM6.20834 9.874V2.845H5.60834V9.874H6.20834ZM5.90834 2.545H5.28734V3.145H5.90834V2.545ZM1.06334 2.845V6.382H1.66334V2.845H1.06334ZM1.06334 6.382C1.06334 7.61762 1.01336 9.16572 0.482587 10.2357L1.02009 10.5023C1.62332 9.28628 1.66334 7.59438 1.66334 6.382H1.06334ZM0.624471 10.6409C0.660797 10.6578 0.736156 10.7062 0.825772 10.7753C0.912754 10.8424 0.988054 10.9095 1.0259 10.9505L1.46678 10.5435C1.39662 10.4675 1.29192 10.3771 1.19215 10.3002C1.09502 10.2253 0.976876 10.1432 0.878202 10.0971L0.624471 10.6409ZM1.51224 10.8859C1.85089 10.2376 2.03689 9.43485 2.14007 8.64262C2.24374 7.8467 2.26634 7.04004 2.26634 6.373H1.66634C1.66634 7.02896 1.64393 7.8063 1.5451 8.56513C1.44578 9.32765 1.27179 10.0504 0.980432 10.6081L1.51224 10.8859ZM2.26634 6.373V2.845H1.66634V6.373H2.26634ZM1.96634 2.545H1.36334V3.145H1.96634V2.545ZM8.01894 2.45589C7.55898 3.05801 6.68101 3.71689 5.94913 4.10025L6.22754 4.63175C7.00767 4.22311 7.96569 3.51399 8.49574 2.82011L8.01894 2.45589ZM5.9163 4.61177C6.0684 4.71824 6.24827 4.89635 6.36656 5.03155L6.81811 4.63645C6.68441 4.48364 6.46827 4.26576 6.26038 4.12023L5.9163 4.61177ZM6.74054 5.09484C7.55894 4.62983 8.50814 3.87776 9.13004 3.1051L8.66263 2.7289C8.09653 3.43224 7.20973 4.13817 6.44413 4.57316L6.74054 5.09484ZM9.01638 2.64206L8.37738 2.36306L8.13729 2.91294L8.77629 3.19194L9.01638 2.64206ZM8.14467 4.83571C7.69261 5.49705 6.82582 6.20495 6.05859 6.60149L6.33408 7.13451C7.16886 6.70305 8.12007 5.93495 8.64001 5.17429L8.14467 4.83571ZM6.0243 7.11377C6.17257 7.21756 6.3492 7.40046 6.45303 7.53623L6.92964 7.17176C6.79948 7.00154 6.5801 6.77044 6.36838 6.62223L6.0243 7.11377ZM6.84284 7.61293C7.71973 7.09986 8.66314 6.28923 9.26773 5.42958L8.77695 5.08442C8.22954 5.86277 7.35495 6.61814 6.53983 7.09507L6.84284 7.61293ZM9.13375 4.97846L8.50375 4.72646L8.28092 5.28354L8.91092 5.53554L9.13375 4.97846ZM8.32682 7.30956C7.83442 8.37926 6.8768 9.3554 5.78486 9.89284L6.04982 10.4312C7.26187 9.8346 8.32026 8.75874 8.87185 7.56044L8.32682 7.30956ZM5.72304 10.3906C5.88678 10.5298 6.07343 10.7345 6.16272 10.8684L6.66195 10.5356C6.53524 10.3455 6.3079 10.1002 6.11163 9.93342L5.72304 10.3906ZM6.55654 10.9651C7.82725 10.2685 8.90698 9.123 9.52804 7.79618L8.98463 7.54182C8.4177 8.753 7.42742 9.80347 6.26814 10.4389L6.55654 10.9651ZM9.35699 7.38639L8.69999 7.15239L8.49868 7.71761L9.15568 7.95161L9.35699 7.38639Z" fill="white"/>
<path d="M1.809 14.8322C1.665 15.8402 1.35 16.8212 0.63 17.3702L1.215 17.7662C2.016 17.1542 2.322 16.0562 2.475 14.9762L1.809 14.8322ZM7.461 14.8232C7.155 15.6062 6.588 16.6952 6.147 17.3612L6.714 17.6222C7.173 16.9742 7.749 15.9572 8.19 15.1112L7.461 14.8232ZM4.455 13.1402H4.095V16.0562C4.095 17.1002 3.465 19.5842 0.432 20.7362C0.585 20.8802 0.81 21.1502 0.9 21.3032C3.456 20.2502 4.275 18.2432 4.455 17.3612C4.635 18.2342 5.517 20.3042 8.127 21.3032C8.226 21.1052 8.433 20.8262 8.577 20.6732C5.454 19.5752 4.815 17.0912 4.815 16.0562V13.1402H4.455Z" fill="white"/>
<path d="M1.809 14.8322L1.8724 14.539L1.55757 14.471L1.51202 14.7898L1.809 14.8322ZM0.63 17.3702L0.448097 17.1317L0.11623 17.3847L0.46183 17.6187L0.63 17.3702ZM1.215 17.7662L1.04683 18.0147L1.2256 18.1357L1.39714 18.0046L1.215 17.7662ZM2.475 14.9762L2.77203 15.0183L2.81118 14.742L2.5384 14.683L2.475 14.9762ZM7.461 14.8232L7.57123 14.5442L7.29118 14.4336L7.18158 14.714L7.461 14.8232ZM6.147 17.3612L5.89687 17.1956L5.70365 17.4874L6.02156 17.6338L6.147 17.3612ZM6.714 17.6222L6.58856 17.8948L6.81483 17.9989L6.95881 17.7957L6.714 17.6222ZM8.19 15.1112L8.45603 15.2499L8.60997 14.9546L8.30023 14.8322L8.19 15.1112ZM4.095 13.1402V12.8402H3.795V13.1402H4.095ZM0.432 20.7362L0.325478 20.4558L-0.122797 20.6261L0.226391 20.9547L0.432 20.7362ZM0.9 21.3032L0.64142 21.4554L0.773468 21.6798L1.01427 21.5806L0.9 21.3032ZM4.455 17.3612L4.74882 17.3007L4.16106 17.3013L4.455 17.3612ZM8.127 21.3032L8.01976 21.5834L8.27372 21.6806L8.39533 21.4374L8.127 21.3032ZM8.577 20.6732L8.79546 20.8789L9.11143 20.5431L8.67651 20.3902L8.577 20.6732ZM4.815 13.1402H5.115V12.8402H4.815V13.1402ZM1.51202 14.7898C1.37004 15.7837 1.06821 16.6588 0.448097 17.1317L0.811903 17.6088C1.63179 16.9836 1.95996 15.8968 2.10598 14.8747L1.51202 14.7898ZM0.46183 17.6187L1.04683 18.0147L1.38317 17.5178L0.79817 17.1218L0.46183 17.6187ZM1.39714 18.0046C2.30191 17.3133 2.61844 16.1026 2.77203 15.0183L2.17797 14.9342C2.02556 16.0099 1.73009 16.9952 1.03286 17.5279L1.39714 18.0046ZM2.5384 14.683L1.8724 14.539L1.7456 15.1255L2.4116 15.2695L2.5384 14.683ZM7.18158 14.714C6.88327 15.4774 6.32607 16.5474 5.89687 17.1956L6.39713 17.5269C6.84993 16.8431 7.42673 15.7351 7.74042 14.9324L7.18158 14.714ZM6.02156 17.6338L6.58856 17.8948L6.83944 17.3497L6.27244 17.0887L6.02156 17.6338ZM6.95881 17.7957C7.42987 17.1306 8.01339 16.0991 8.45603 15.2499L7.92397 14.9726C7.48461 15.8154 6.91613 16.8179 6.46919 17.4488L6.95881 17.7957ZM8.30023 14.8322L7.57123 14.5442L7.35077 15.1023L8.07977 15.3903L8.30023 14.8322ZM4.455 12.8402H4.095V13.4402H4.455V12.8402ZM3.795 13.1402V16.0562H4.395V13.1402H3.795ZM3.795 16.0562C3.795 17.0082 3.21428 19.3586 0.325478 20.4558L0.538522 21.0167C3.71572 19.8099 4.395 17.1923 4.395 16.0562H3.795ZM0.226391 20.9547C0.364257 21.0845 0.56927 21.3327 0.64142 21.4554L1.15858 21.1511C1.05073 20.9678 0.805743 20.676 0.637609 20.5178L0.226391 20.9547ZM1.01427 21.5806C3.68509 20.4803 4.55438 18.3746 4.74894 17.4212L4.16106 17.3013C3.99562 18.1119 3.22691 20.0202 0.785726 21.0259L1.01427 21.5806ZM4.16118 17.4218C4.35643 18.3688 5.29156 20.5392 8.01976 21.5834L8.23424 21.0231C5.74244 20.0693 4.91357 18.0997 4.74882 17.3007L4.16118 17.4218ZM8.39533 21.4374C8.47846 21.2711 8.66665 21.0157 8.79546 20.8789L8.35854 20.4676C8.19935 20.6368 7.97354 20.9393 7.85867 21.1691L8.39533 21.4374ZM8.67651 20.3902C5.70082 19.344 5.115 16.9954 5.115 16.0562H4.515C4.515 17.1871 5.20718 19.8065 8.4775 20.9563L8.67651 20.3902ZM5.115 16.0562V13.1402H4.515V16.0562H5.115ZM4.815 12.8402H4.455V13.4402H4.815V12.8402Z" fill="white"/>
</svg>
